# xmcd
#
# Track frame offsets:
#	150
#	13980
#	30219
#	43970
#	59495
#	74919
#	90771
#	108293
#	119948
#	142417
#	156652
#	172678
#	187648
#
# Disc length: 2697 seconds
#
# Revision: 1
# Processed by: cddbd v1.5.2PL0 Copyright (c) Steve Scherf et al.
# Submitted via: audiograbber 1.83.01
#
DISCID=ba0a870d
DTITLE=Willie Nelson - God's Problem Child
DYEAR=2017
DGENRE=Country
TTITLE0=Little House On The Hill
TTITLE1=Old Timer
TTITLE2=True Love
TTITLE3=Delete And Fast Forward
TTITLE4=A Woman's Love
TTITLE5=Your Memory Has A Mind Of Its Own
TTITLE6=Butterfly
TTITLE7=Still Not Dead
TTITLE8=God's Problem Child
TTITLE9=It Gets Easier
TTITLE10=Lady Luck
TTITLE11=I Made A Mistake
TTITLE12=He Won't Ever Be Gone
EXTD=
EXTT0=
EXTT1=
EXTT2=
EXTT3=
EXTT4=
EXTT5=
EXTT6=
EXTT7=
EXTT8=
EXTT9=
EXTT10=
EXTT11=
EXTT12=
PLAYORDER=
